<?xml version="1.0" encoding="UTF-8"?>
<svg xmlns="http://www.w3.org/2000/svg" xmlns:xlink="http://www.w3.org/1999/xlink" width="512" height="512" viewBox="0 0 512 512">
<path fill-rule="nonzero" fill="rgb(0%, 0%, 0%)" fill-opacity="1" d="M 301.066406 0.878906 C 300.878906 1.398438 299.21875 6.679688 297.328125 12.679688 C 293.546875 24.679688 293.5 25.320312 296.359375 25.761719 C 302.078125 26.71875 320.851562 32.28125 331.507812 36.238281 C 401.066406 61.960938 454.988281 111.679688 479.941406 173.199219 C 481.1875 176.160156 482.292969 178.761719 482.527344 178.960938 C 482.710938 179.121094 488.429688 177.71875 495.257812 175.800781 C 502.035156 173.878906 508.585938 172.039062 509.832031 171.71875 C 511.03125 171.398438 512 170.878906 512 170.558594 C 512 170.28125 510.984375 167.558594 509.738281 164.519531 C 497.699219 134.839844 480.21875 108.359375 456.371094 83.558594 C 448.945312 75.839844 431.371094 60.519531 422.285156 53.800781 C 392.625 31.960938 359.507812 15.71875 323.34375 5.320312 C 316.378906 3.320312 303.046875 0 301.988281 0 C 301.617188 0 301.203125 0.398438 301.066406 0.878906 Z M 301.066406 0.878906 "/>
<path fill-rule="nonzero" fill="rgb(0%, 0%, 0%)" fill-opacity="1" d="M 287.136719 48.121094 C 286.675781 49.238281 279.894531 70.28125 279.664062 71.238281 C 279.433594 72.238281 279.570312 72.320312 284 73.359375 C 310.152344 79.761719 333.355469 89.640625 354.480469 103.398438 C 387.96875 125.199219 412.550781 154.320312 426.710938 188.800781 C 427.910156 191.761719 429.066406 194.199219 429.296875 194.160156 C 429.804688 194.078125 456.832031 186.679688 457.0625 186.519531 C 457.15625 186.441406 456.1875 183.761719 454.851562 180.519531 C 444.933594 156.398438 430.726562 134.921875 411.398438 114.761719 C 405.265625 108.359375 390.226562 95.359375 382.847656 90 C 354.988281 69.878906 326.066406 56.839844 290.6875 48.441406 C 288.195312 47.839844 287.273438 47.761719 287.136719 48.121094 Z M 287.136719 48.121094 "/>
<path fill-rule="nonzero" fill="rgb(0%, 0%, 0%)" fill-opacity="1" d="M 220.023438 98.679688 C 186.441406 100.839844 154.199219 111.761719 128 129.839844 C 121.863281 134.078125 108.074219 145.960938 103.230469 151.199219 C 85.332031 170.558594 73.433594 193.160156 68.726562 216.601562 C 66.835938 226.28125 66.050781 241.71875 67.296875 246.601562 C 68.636719 252.039062 72.140625 256.199219 76.9375 258.121094 C 78.738281 258.839844 79.9375 259 84.179688 259 C 88.792969 259 89.484375 258.921875 91.882812 257.878906 C 96.3125 256 99.171875 252.359375 100.96875 246.199219 C 101.476562 244.441406 102.859375 238 104.015625 231.921875 C 108.027344 210.761719 112.316406 199.359375 120.851562 186.640625 C 138.46875 160.558594 169.421875 140.121094 202.679688 132.601562 C 213.054688 130.28125 217.945312 129.800781 231.785156 129.800781 C 245.714844 129.800781 249.679688 130.199219 260.84375 132.640625 C 299.679688 141.121094 334.277344 166.359375 350.742188 198.160156 C 358.628906 213.480469 362.042969 229.519531 361.074219 246.878906 C 360.660156 254.921875 359.460938 260.761719 356.691406 268.800781 C 351.34375 284.28125 342.394531 297.679688 321.039062 322.398438 C 304.292969 341.761719 297.652344 350.480469 291.378906 361.441406 C 285.011719 372.480469 281.183594 383.199219 279.476562 394.601562 C 279.15625 396.71875 278.832031 407.761719 278.648438 421.398438 C 278.324219 444.160156 278.277344 444.640625 277.265625 447.398438 C 271.960938 461.480469 257.890625 473.519531 242.714844 477.039062 C 241.285156 477.359375 236.859375 477.878906 232.84375 478.199219 C 220.757812 479.199219 214.253906 481.441406 210.933594 485.71875 C 208.90625 488.359375 208.351562 490.359375 208.582031 494.28125 C 209.042969 502.238281 216.101562 509.039062 226.0625 511.078125 C 230.398438 512 238.195312 511.960938 245.113281 511 C 280.632812 506.199219 308.121094 484.320312 315.550781 455 C 316.472656 451.238281 316.5625 449.640625 316.886719 427.199219 C 317.253906 401.398438 317.394531 399.921875 320.117188 390.359375 C 322.285156 382.761719 324.683594 377.238281 329.15625 369.558594 C 334.277344 360.679688 340.132812 353.078125 355.078125 335.839844 C 366.886719 322.199219 371.683594 316.398438 376.019531 310.359375 C 389.304688 292 396.085938 275.121094 398.113281 255.199219 C 398.804688 248.398438 398.4375 232.039062 397.421875 225.199219 C 392.347656 191.28125 376.25 162.761719 349.128906 139.800781 C 341.332031 133.160156 338.933594 131.398438 331.09375 126.359375 C 307.246094 111 277.539062 101.160156 247.929688 98.800781 C 243.316406 98.441406 225.050781 98.359375 220.023438 98.679688 Z M 220.023438 98.679688 "/>
<path fill-rule="nonzero" fill="rgb(0%, 0%, 0%)" fill-opacity="1" d="M 215.640625 140.640625 C 204.152344 142.121094 194.835938 144.679688 183.949219 149.441406 C 149.078125 164.558594 123.664062 193.121094 116.929688 224.601562 C 115.316406 232.199219 114.578125 241.800781 115.316406 245.558594 C 116.097656 249.679688 118.222656 253.039062 120.988281 254.679688 C 126.339844 257.800781 134.640625 257.238281 138.746094 253.519531 C 140.960938 251.480469 142.253906 247.761719 144.097656 238 C 146.636719 224.640625 148.386719 219.480469 153.371094 210.601562 C 164.210938 191.199219 182.382812 176.558594 204.570312 169.398438 C 213.519531 166.519531 217.484375 165.960938 230.167969 165.71875 C 238.933594 165.558594 242.484375 165.679688 246.082031 166.160156 C 261.441406 168.199219 276.109375 174.921875 289.441406 186.078125 C 303.464844 197.761719 308.722656 206.878906 315.226562 230.679688 C 316.839844 236.601562 318.824219 242.878906 319.609375 244.601562 C 323.019531 252.28125 327.496094 255.359375 335.335938 255.359375 C 338.242188 255.398438 339.257812 255.199219 341.472656 254.238281 C 346.128906 252.28125 348.253906 248.441406 348.621094 241.199219 C 349.3125 227.480469 343.179688 208.359375 333.214844 193.121094 C 317.210938 168.558594 292.625 150.878906 265.085938 144.039062 C 253.234375 141.121094 249.359375 140.71875 232.015625 140.601562 C 223.757812 140.519531 216.421875 140.558594 215.640625 140.640625 Z M 215.640625 140.640625 "/>
<path fill-rule="nonzero" fill="rgb(0%, 0%, 0%)" fill-opacity="1" d="M 228.785156 237.199219 C 223.433594 238.199219 218.589844 241.558594 216.148438 246 C 214.855469 248.320312 214.71875 249 214.71875 252.398438 C 214.71875 255.761719 214.855469 256.480469 216.007812 258.519531 C 217.714844 261.480469 221.359375 264.640625 224.589844 265.921875 C 227.679688 267.160156 233.167969 267.558594 236.902344 266.839844 C 241.929688 265.839844 247.144531 261.71875 249.171875 257.121094 C 252.265625 250 247.234375 240.839844 238.5625 238 C 235.75 237.078125 231.507812 236.71875 228.785156 237.199219 Z M 228.785156 237.199219 "/>
<path fill-rule="nonzero" fill="rgb(0%, 0%, 0%)" fill-opacity="1" d="M 173.617188 283.519531 C 161.210938 287.359375 157.519531 301.238281 166.746094 309.28125 C 170.945312 312.878906 176.433594 314.519531 181.550781 313.601562 C 187.59375 312.519531 192.347656 309.398438 194.835938 304.800781 C 196.128906 302.441406 196.265625 301.839844 196.265625 298.199219 C 196.265625 294.601562 196.128906 293.960938 194.929688 291.800781 C 191.976562 286.640625 185.980469 283.199219 179.476562 282.921875 C 176.941406 282.800781 175.324219 282.960938 173.617188 283.519531 Z M 173.617188 283.519531 "/>
<path fill-rule="nonzero" fill="rgb(0%, 0%, 0%)" fill-opacity="1" d="M 95.34375 320.078125 L 84.410156 329.800781 L 113.609375 354.878906 C 129.613281 368.679688 142.992188 379.960938 143.222656 379.921875 C 143.5 379.878906 148.617188 375.519531 154.613281 370.238281 L 165.59375 360.601562 L 136.257812 335.480469 C 120.113281 321.679688 106.78125 310.398438 106.597656 310.398438 C 106.414062 310.398438 101.339844 314.761719 95.34375 320.078125 Z M 95.34375 320.078125 "/>
<path fill-rule="nonzero" fill="rgb(0%, 0%, 0%)" fill-opacity="1" d="M 64.53125 378.121094 C 59.824219 379.839844 56.550781 382.519531 54.476562 386.359375 C 53.414062 388.320312 53.277344 389.121094 53.277344 392.601562 C 53.277344 396.121094 53.414062 396.878906 54.519531 398.921875 C 57.75 404.839844 66.375 409.039062 73.109375 407.960938 C 78.414062 407.121094 84.042969 403.441406 86.164062 399.480469 C 88.285156 395.519531 88.191406 389.359375 85.980469 385.441406 C 84.410156 382.640625 81.089844 379.878906 77.585938 378.480469 C 73.800781 376.960938 68.175781 376.800781 64.53125 378.121094 Z M 64.53125 378.121094 "/>
<path fill-rule="nonzero" fill="rgb(0%, 0%, 0%)" fill-opacity="1" d="M 12.777344 424 C 8.117188 425.039062 3.828125 428.078125 1.566406 431.960938 C -0.96875 436.398438 -0.367188 442.960938 3 447.398438 C 10.46875 457.121094 27.492188 455.679688 33.394531 444.800781 C 34.640625 442.519531 34.824219 441.800781 34.824219 438.601562 C 34.824219 435.480469 34.640625 434.679688 33.488281 432.519531 C 31.875 429.480469 28.273438 426.359375 24.722656 424.960938 C 21.863281 423.839844 15.773438 423.359375 12.777344 424 Z M 12.777344 424 "/>
</svg>
